0
SECTION
2
HEADER
9
$ACADVER
1
AC1032
9
$DWGCODEPAGE
3
ANSI_1252
9
$LASTSAVEDBY
1
kadmo
9
$HANDSEED
5
621
9
$INSBASE
10
0.0
20
0.0
30
0.0
9
$EXTMIN
10
97.4916687011719
20
152.540344238281
30
0.0
9
$EXTMAX
10
135.340225219727
20
170.856353759766
30
0.0
9
$LIMMIN
10
0.0
20
0.0
9
$LIMMAX
10
420.0
20
297.0
9
$ANGBASE
50
0.0
9
$ANGDIR
70
0
9
$ATTMODE
70
1
9
$AUNITS
70
0
9
$AUPREC
70
0
9
$CECOLOR
62
256
9
$CELTSCALE
40
1.0
9
$CELTYPE
6
ByLayer
9
$CELWEIGHT
370
-1
9
$CLAYER
8
propspetti
9
$CMLJUST
70
0
9
$CMLSCALE
40
20.0
9
$CMLSTYLE
2
Standard
9
$DIMSTYLE
2
ISO-25
9
$TEXTSIZE
40
2.5
9
$TEXTSTYLE
7
Standard
9
$LUNITS
70
2
9
$LUPREC
70
4
9
$EXTNAMES
290
1
9
$INSUNITS
70
4
9
$LTSCALE
40
1.0
9
$LWDISPLAY
290
0
9
$PDMODE
70
0
9
$PDSIZE
40
0.0
9
$PLINEGEN
70
0
9
$PSLTSCALE
70
1
9
$TDCREATE
40
2453807.72983795
9
$TDUCREATE
40
2453807.68817862
9
$TDUPDATE
40
2458884.50863759
9
$TDUUPDATE
40
2458147.41734953
9
$TDINDWG
40
0.17847657757407
9
$THICKNESS
40
0.0
9
$ELEVATION
40
0.0
9
$TRACEWID
40
1.0
9
$PLINEWID
40
0.0
9
$PLIMMIN
10
0.0
20
0.0
9
$PLIMMAX
10
12.0
20
9.0
9
$PELEVATION
40
0.0
9
$PEXTMIN
10
0.0
20
0.0
30
0.0
9
$PEXTMAX
10
0.0
20
0.0
30
0.0
9
$PINSBASE
10
0.0
20
0.0
30
0.0
9
$PLIMCHECK
70
0
9
$ORTHOMODE
70
0
9
$UCSNAME
2

9
$UCSORG
10
0.0
20
0.0
30
0.0
9
$UCSORGBACK
10
0.0
20
0.0
30
0.0
9
$UCSORGBOTTOM
10
0.0
20
0.0
30
0.0
9
$UCSORGFRONT
10
0.0
20
0.0
30
0.0
9
$UCSORGLEFT
10
0.0
20
0.0
30
0.0
9
$UCSORGRIGHT
10
0.0
20
0.0
30
0.0
9
$UCSORGTOP
10
0.0
20
0.0
30
0.0
9
$UCSORTHOREF
2

9
$UCSORTHOVIEW
70
0
9
$UCSXDIR
10
1.0
20
0.0
30
0.0
9
$UCSYDIR
10
0.0
20
1.0
30
0.0
9
$CHAMFERA
40
0.0
9
$CHAMFERB
40
0.0
9
$CHAMFERC
40
0.0
9
$CHAMFERD
40
0.0
9
$CEPSNTYPE
380
0
9
$DIMADEC
70
0
9
$DIMAUNIT
70
0
9
$DIMASZ
40
2.5
9
$DIMAZIN
70
3
9
$DIMSAH
70
0
9
$DIMBLK
1

9
$DIMLDRBLK
1

9
$DIMCEN
40
2.5
9
$DIMCLRD
70
0
9
$DIMCLRE
70
0
9
$DIMCLRT
70
0
9
$DIMDEC
70
2
9
$DIMDLE
40
0.0
9
$DIMDLI
40
3.75
9
$DIMDSEP
70
44
9
$DIMEXE
40
1.25
9
$DIMEXO
40
0.625
9
$DIMGAP
40
0.625
9
$DIMJUST
70
0
9
$DIMLFAC
40
1.0
9
$DIMLUNIT
70
2
9
$DIMLWD
70
-2
9
$DIMLWE
70
-2
9
$DIMPOST
1
<>
9
$DIMRND
40
0.0
9
$DIMSCALE
40
1.0
9
$DIMSD1
70
0
9
$DIMSD2
70
0
9
$DIMSE1
70
0
9
$DIMSE2
70
0
9
$DIMTAD
70
1
9
$DIMTIH
70
0
9
$DIMTOH
70
0
9
$DIMTXT
40
2.5
9
$DIMZIN
70
0
9
$DIMFRAC
70
0
9
$DIMLTYPE
6
ByBlock
9
$DIMLTEX1
6
ByBlock
9
$DIMLTEX2
6
ByBlock
0
ENDSEC
0
SECTION
2
CLASSES
0
CLASS
1
ACDBDICTIONARYWDFLT
2
AcDbDictionaryWithDefault
3
ObjectDBX Classes
90
0
91
1
280
0
281
0
0
CLASS
1
DICTIONARYVAR
2
AcDbDictionaryVar
3
ObjectDBX Classes
90
0
91
11
280
0
281
0
0
CLASS
1
MATERIAL
2
AcDbMaterial
3
ObjectDBX Classes
90
1153
91
3
280
0
281
0
0
CLASS
1
VISUALSTYLE
2
AcDbVisualStyle
3
ObjectDBX Classes
90
4095
91
24
280
0
281
0
0
CLASS
1
TABLESTYLE
2
AcDbTableStyle
3
ObjectDBX Classes
90
4095
91
1
280
0
281
0
0
CLASS
1
SCALE
2
AcDbScale
3
ObjectDBX Classes
90
1153
91
17
280
0
281
0
0
CLASS
1
MLEADERSTYLE
2
AcDbMLeaderStyle
3
ACDB_MLEADERSTYLE_CLASS
90
4095
91
1
280
0
281
0
0
CLASS
1
ACDBSECTIONVIEWSTYLE
2
AcDbSectionViewStyle
3
ObjectDBX Classes
90
1025
91
1
280
0
281
0
0
CLASS
1
ACDBDETAILVIEWSTYLE
2
AcDbDetailViewStyle
3
ObjectDBX Classes
90
1025
91
1
280
0
281
0
0
CLASS
1
CELLSTYLEMAP
2
AcDbCellStyleMap
3
ObjectDBX Classes
90
1152
91
1
280
0
281
0
0
CLASS
1
RASTERVARIABLES
2
AcDbRasterVariables
3
ISM
90
0
91
1
280
0
281
0
0
ENDSEC
0
SECTION
2
TABLES
0
TABLE
2
APPID
5
18353
330
0
100
AcDbSymbolTable
70
5
0
APPID
5
18354
330
18353
100
AcDbSymbolTableRecord
100
AcDbRegAppTableRecord
2
ACAD
70
0
0
APPID
5
18355
330
18353
100
AcDbSymbolTableRecord
100
AcDbRegAppTableRecord
2
ACAD_NAV_VCDISPLAY
70
0
0
APPID
5
616
330
18353
100
AcDbSymbolTableRecord
100
AcDbRegAppTableRecord
2
AcCmTransparency
70
0
0
APPID
5
617
330
18353
100
AcDbSymbolTableRecord
100
AcDbRegAppTableRecord
2
GradientColor1ACI
70
0
0
APPID
5
618
330
18353
100
AcDbSymbolTableRecord
100
AcDbRegAppTableRecord
2
GradientColor2ACI
70
0
0
ENDTAB
0
TABLE
2
VIEW
5
18351
330
0
100
AcDbSymbolTable
70
0
0
ENDTAB
0
TABLE
2
VPORT
5
18341
330
0
100
AcDbSymbolTable
70
1
0
VPORT
5
18342
330
18341
100
AcDbSymbolTableRecord
100
AcDbViewportTableRecord
2
*Active
70
0
10
0.0
20
0.0
11
1.0
21
1.0
12
116.415946960449
22
161.698348999023
13
0.0
23
0.0
14
10.0
24
10.0
15
10.0
25
10.0
16
0.0
26
0.0
36
1.0
17
0.0
27
0.0
37
0.0
40
18.3160095214844
41
2.06641935156012
42
50.0
43
0.0
44
0.0
50
0.0
51
0.0
71
0
72
0
73
0
74
0
75
0
76
0
77
0
78
0
0
ENDTAB
0
TABLE
2
LTYPE
5
18343
330
0
100
AcDbSymbolTable
70
3
0
LTYPE
5
18344
330
18343
100
AcDbSymbolTableRecord
100
AcDbLinetypeTableRecord
70
0
2
ByBlock
3

72
65
73
0
40
0.0
46
1.0
0
LTYPE
5
18345
330
18343
100
AcDbSymbolTableRecord
100
AcDbLinetypeTableRecord
70
0
2
ByLayer
3

72
65
73
0
40
0.0
46
1.0
0
LTYPE
5
18346
330
18343
100
AcDbSymbolTableRecord
100
AcDbLinetypeTableRecord
70
0
2
Continuous
3
Solid line
72
65
73
0
40
0.0
46
1.0
0
ENDTAB
0
TABLE
2
LAYER
5
18347
330
0
100
AcDbSymbolTable
70
7
0
LAYER
5
18348
330
18347
100
AcDbSymbolTableRecord
100
AcDbLayerTableRecord
2
0
70
0
62
7
6
Continuous
290
1
370
-3
390
0
0
LAYER
5
18349
330
18347
100
AcDbSymbolTableRecord
100
AcDbLayerTableRecord
2
muratura
70
0
62
7
6
Continuous
290
1
370
-3
390
0
0
LAYER
5
1834A
330
18347
100
AcDbSymbolTableRecord
100
AcDbLayerTableRecord
2
aperture
70
0
62
1
6
Continuous
290
1
370
-3
390
0
0
LAYER
5
1834B
330
18347
100
AcDbSymbolTableRecord
100
AcDbLayerTableRecord
2
tetto
70
0
62
3
6
Continuous
290
1
370
-3
390
0
0
LAYER
5
1834C
330
18347
100
AcDbSymbolTableRecord
100
AcDbLayerTableRecord
2
area
70
0
62
6
6
Continuous
290
1
370
-3
390
0
0
LAYER
5
1834D
330
18347
100
AcDbSymbolTableRecord
100
AcDbLayerTableRecord
2
scala
70
0
62
2
6
Continuous
290
1
370
-3
390
0
0
LAYER
5
1834E
330
18347
100
AcDbSymbolTableRecord
100
AcDbLayerTableRecord
2
propspetti
70
0
62
8
6
Continuous
290
1
370
-3
390
0
0
ENDTAB
0
TABLE
2
STYLE
5
1834F
330
0
100
AcDbSymbolTable
70
1
0
STYLE
5
18350
330
1834F
100
AcDbSymbolTableRecord
100
AcDbTextStyleTableRecord
2
Standard
3
fonts\txt.ttf
70
0
71
0
40
0.0
41
1.0
42
0.0
50
0.0
1001
ACAD
1000
txt
1071
0
0
ENDTAB
0
TABLE
2
DIMSTYLE
5
18356
330
0
100
AcDbSymbolTable
70
2
100
AcDbDimStyleTable
0
DIMSTYLE
105
18357
330
18356
100
AcDbSymbolTableRecord
100
AcDbDimStyleTableRecord
2
ISO-25
70
0
3
<>
40
1.0
41
2.5
42
0.625
43
3.75
44
1.25
45
0.0
46
0.0
47
0.0
48
0.0
71
0
72
0
73
0
74
0
75
0
76
0
77
1
78
0
79
3
140
2.5
141
2.5
142
0.0
143
0.0
144
1.0
145
0.0
146
0.0
147
0.625
170
0
171
0
172
0
174
0
175
0
176
0
177
0
178
0
179
0
271
2
275
0
276
0
277
2
278
44
280
0
281
0
282
0
340
18350
173
0
345
18344
346
18344
347
18344
371
-2
372
-2
0
DIMSTYLE
105
183F5
330
18356
100
AcDbSymbolTableRecord
100
AcDbDimStyleTableRecord
2
Standard
70
0
3
<>
40
1.0
41
0.18
42
0.0625
43
0.38
44
0.18
45
0.0
46
0.0
47
0.0
48
0.0
71
0
72
0
73
0
74
0
75
0
76
0
77
1
78
0
79
0
140
0.18
141
0.09
142
0.0
143
0.0
144
1.0
145
0.0
146
0.0
147
0.09
170
0
171
0
172
0
174
0
175
0
176
0
177
0
178
0
179
0
271
2
275
0
276
0
277
2
278
46
280
0
281
0
282
0
340
18350
173
0
345
18344
346
18344
347
18344
371
-2
372
-2
0
ENDTAB
0
TABLE
2
UCS
5
18352
330
0
100
AcDbSymbolTable
70
0
0
ENDTAB
0
TABLE
2
BLOCK_RECORD
5
18358
330
0
100
AcDbSymbolTable
70
3
0
BLOCK_RECORD
5
1835A
330
18358
100
AcDbSymbolTableRecord
100
AcDbBlockTableRecord
2
*Model_Space
0
BLOCK_RECORD
5
1835C
330
18358
100
AcDbSymbolTableRecord
100
AcDbBlockTableRecord
2
*Paper_Space
0
BLOCK_RECORD
5
1835E
330
18358
100
AcDbSymbolTableRecord
100
AcDbBlockTableRecord
2
*Paper_Space0
0
ENDTAB
0
ENDSEC
0
SECTION
2
BLOCKS
0
BLOCK
5
18359
330
1835A
100
AcDbEntity
8
0
100
AcDbBlockBegin
2
*Model_Space
70
0
10
0.0
20
0.0
30
0.0
3
*Model_Space
0
ENDBLK
5
21
330
1835A
100
AcDbEntity
8
0
100
AcDbBlockEnd
0
BLOCK
5
1835B
330
1835C
100
AcDbEntity
8
0
100
AcDbBlockBegin
2
*Paper_Space
70
0
10
0.0
20
0.0
30
0.0
3
*Paper_Space
0
ENDBLK
5
53
330
1835C
100
AcDbEntity
8
0
100
AcDbBlockEnd
0
BLOCK
5
1835D
330
1835E
100
AcDbEntity
67
1
8
0
100
AcDbBlockBegin
2
*Paper_Space0
70
0
10
0.0
20
0.0
30
0.0
3
*Paper_Space0
0
VIEWPORT
5
58A
330
1835E
100
AcDbEntity
67
1
8
0
62
256
6
ByLayer
370
-1
48
1.0
60
0
100
AcDbViewport
10
0.0
20
0.0
30
0.0
40
297.0
41
210.0
68
1
69
1
12
50.0
22
100.0
13
0.0
23
0.0
14
10.0
24
10.0
15
10.0
25
10.0
16
0.0
26
0.0
36
1.0
17
0.0
27
0.0
37
0.0
42
50.0
43
0.0
44
0.0
45
250.0
50
0.0
51
0.0
72
1000
90
819232
110
0.0
120
0.0
130
0.0
111
1.0
121
0.0
131
0.0
112
0.0
122
1.0
132
0.0
0
ENDBLK
5
58
330
1835E
100
AcDbEntity
8
0
100
AcDbBlockEnd
0
ENDSEC
0
SECTION
2
ENTITIES
0
VIEWPORT
5
589
330
1835C
100
AcDbEntity
67
1
8
0
62
256
6
ByLayer
370
-1
48
1.0
60
0
100
AcDbViewport
10
0.0
20
0.0
30
0.0
40
297.0
41
210.0
68
1
69
1
12
50.0
22
100.0
13
0.0
23
0.0
14
10.0
24
10.0
15
10.0
25
10.0
16
0.0
26
0.0
36
1.0
17
0.0
27
0.0
37
0.0
42
50.0
43
0.0
44
0.0
45
250.0
50
0.0
51
0.0
72
1000
90
819232
110
0.0
120
0.0
130
0.0
111
1.0
121
0.0
131
0.0
112
0.0
122
1.0
132
0.0
0
LINE
5
1836B
330
1835A
100
AcDbEntity
67
0
8
muratura
62
256
6
ByLayer
370
-1
48
1.0
60
0
100
AcDbLine
10
102.874609350793
20
157.795152839535
30
0.0
11
104.078528905758
21
157.795152839535
31
0.0
39
0.0
210
0.0
220
0.0
230
1.0
0
LINE
5
1836C
330
1835A
100
AcDbEntity
67
0
8
muratura
62
256
6
ByLayer
370
-1
48
1.0
60
0
100
AcDbLine
10
103.498261687439
20
158.445152839535
30
0.0
11
104.078528905758
21
158.445152839535
31
0.0
39
0.0
210
0.0
220
0.0
230
1.0
0
LINE
5
1836D
330
1835A
100
AcDbEntity
67
0
8
muratura
62
256
6
ByLayer
370
-1
48
1.0
60
0
100
AcDbLine
10
104.078528905758
20
157.795152839535
30
0.0
11
104.078528905758
21
158.445152839535
31
0.0
39
0.0
210
0.0
220
0.0
230
1.0
0
LINE
5
1836E
330
1835A
100
AcDbEntity
67
0
8
muratura
62
256
6
ByLayer
370
-1
48
1.0
60
0
100
AcDbLine
10
104.578528905758
20
157.795152839535
30
0.0
11
104.578528905758
21
158.445152839535
31
0.0
39
0.0
210
0.0
220
0.0
230
1.0
0
LINE
5
1836F
330
1835A
100
AcDbEntity
67
0
8
muratura
62
256
6
ByLayer
370
-1
48
1.0
60
0
100
AcDbLine
10
104.578528905758
20
158.445152839535
30
0.0
11
105.478528905758
21
158.445152839535
31
0.0
39
0.0
210
0.0
220
0.0
230
1.0
0
LINE
5
18370
330
1835A
100
AcDbEntity
67
0
8
muratura
62
256
6
ByLayer
370
-1
48
1.0
60
0
100
AcDbLine
10
104.578528905758
20
157.795152839535
30
0.0
11
105.658528905758
21
157.795152839535
31
0.0
39
0.0
210
0.0
220
0.0
230
1.0
0
LINE
5
18371
330
1835A
100
AcDbEntity
67
0
8
aperture
62
256
6
ByLayer
370
-1
48
1.0
60
0
100
AcDbLine
10
104.078528905758
20
157.795152839535
30
0.0
11
104.578528905758
21
157.795152839535
31
0.0
39
0.0
210
0.0
220
0.0
230
1.0
0
LINE
5
18372
330
1835A
100
AcDbEntity
67
0
8
aperture
62
256
6
ByLayer
370
-1
48
1.0
60
0
100
AcDbLine
10
104.078528905758
20
157.895152839535
30
0.0
11
104.578528905758
21
157.895152839535
31
0.0
39
0.0
210
0.0
220
0.0
230
1.0
0
LINE
5
18373
330
1835A
100
AcDbEntity
67
0
8
aperture
62
256
6
ByLayer
370
-1
48
1.0
60
0
100
AcDbLine
10
104.078528905758
20
157.995152839535
30
0.0
11
104.578528905758
21
157.995152839535
31
0.0
39
0.0
210
0.0
220
0.0
230
1.0
0
LINE
5
18374
330
1835A
100
AcDbEntity
67
0
8
muratura
62
256
6
ByLayer
370
-1
48
1.0
60
0
100
AcDbLine
10
105.658528905758
20
157.795152839535
30
0.0
11
105.658528905758
21
158.213277546773
31
0.0
39
0.0
210
0.0
220
0.0
230
1.0
0
LINE
5
18375
330
1835A
100
AcDbEntity
67
0
8
muratura
62
256
6
ByLayer
370
-1
48
1.0
60
0
100
AcDbLine
10
106.718528905758
20
157.795152839535
30
0.0
11
106.718528905758
21
158.144933516997
31
0.0
39
0.0
210
0.0
220
0.0
230
1.0
0
LINE
5
18376
330
1835A
100
AcDbEntity
67
0
8
muratura
62
256
6
ByLayer
370
-1
48
1.0
60
0
100
AcDbLine
10
107.018528905758
20
158.445152839535
30
0.0
11
107.822425446458
21
158.445152839535
31
0.0
39
0.0
210
0.0
220
0.0
230
1.0
0
LINE
5
18377
330
1835A
100
AcDbEntity
67
0
8
muratura
62
256
6
ByLayer
370
-1
48
1.0
60
0
100
AcDbLine
10
106.718528905758
20
157.795152839535
30
0.0
11
107.822425446458
21
157.795152839535
31
0.0
39
0.0
210
0.0
220
0.0
230
1.0
0
LINE
5
18378
330
1835A
100
AcDbEntity
67
0
8
aperture
62
256
6
ByLayer
370
-1
48
1.0
60
0
100
AcDbLine
10
105.658528905758
20
157.795152839535
30
0.0
11
106.718528905758
21
157.795152839535
31
0.0
39
0.0
210
0.0
220
0.0
230
1.0
0
LINE
5
18379
330
1835A
100
AcDbEntity
67
0
8
aperture
62
256
6
ByLayer
370
-1
48
1.0
60
0
100
AcDbLine
10
105.658528905758
20
157.895152839535
30
0.0
11
106.718528905758
21
157.895152839535
31
0.0
39
0.0
210
0.0
220
0.0
230
1.0
0
LINE
5
1837A
330
1835A
100
AcDbEntity
67
0
8
muratura
62
256
6
ByLayer
370
-1
48
1.0
60
0
100
AcDbLine
10
105.478528905758
20
158.445152839535
30
0.0
11
105.478528905758
21
158.213277546773
31
0.0
39
0.0
210
0.0
220
0.0
230
1.0
0
LINE
5
1837B
330
1835A
100
AcDbEntity
67
0
8
muratura
62
256
6
ByLayer
370
-1
48
1.0
60
0
100
AcDbLine
10
105.478528905758
20
158.213277546773
30
0.0
11
105.658528905758
21
158.213277546773
31
0.0
39
0.0
210
0.0
220
0.0
230
1.0
0
LINE
5
1837C
330
1835A
100
AcDbEntity
67
0
8
muratura
62
256
6
ByLayer
370
-1
48
1.0
60
0
100
AcDbLine
10
106.718528905758
20
158.144933516997
30
0.0
11
107.018528905758
21
158.144933516997
31
0.0
39
0.0
210
0.0
220
0.0
230
1.0
0
LINE
5
1837D
330
1835A
100
AcDbEntity
67
0
8
muratura
62
256
6
ByLayer
370
-1
48
1.0
60
0
100
AcDbLine
10
107.018528905758
20
158.445152839535
30
0.0
11
107.018528905758
21
158.144933516997
31
0.0
39
0.0
210
0.0
220
0.0
230
1.0
0
LINE
5
1837E
330
1835A
100
AcDbEntity
67
0
8
muratura
62
256
6
ByLayer
370
-1
48
1.0
60
0
100
AcDbLine
10
108.323764878088
20
157.795152839535
30
0.0
11
108.323764878088
21
158.445152839535
31
0.0
39
0.0
210
0.0
220
0.0
230
1.0
0
LINE
5
1837F
330
1835A
100
AcDbEntity
67
0
8
muratura
62
256
6
ByLayer
370
-1
48
1.0
60
0
100
AcDbLine
10
107.822425446458
20
157.795152839535
30
0.0
11
107.822425446458
21
158.445152839535
31
0.0
39
0.0
210
0.0
220
0.0
230
1.0
0
LINE
5
18380
330
1835A
100
AcDbEntity
67
0
8
muratura
62
256
6
ByLayer
370
-1
48
1.0
60
0
100
AcDbLine
10
108.323764878088
20
158.445152839535
30
0.0
11
109.073764878088
21
158.445152839535
31
0.0
39
0.0
210
0.0
220
0.0
230
1.0
0
LINE
5
18381
330
1835A
100
AcDbEntity
67
0
8
muratura
62
256
6
ByLayer
370
-1
48
1.0
60
0
100
AcDbLine
10
108.323764878088
20
157.795152839535
30
0.0
11
109.553977138511
21
157.795152839535
31
0.0
39
0.0
210
0.0
220
0.0
230
1.0
0
LINE
5
18382
330
1835A
100
AcDbEntity
67
0
8
muratura
62
256
6
ByLayer
370
-1
48
1.0
60
0
100
AcDbLine
10
108.323764878088
20
157.795152839535
30
0.0
11
107.822425446458
21
157.795152839535
31
0.0
39
0.0
210
0.0
220
0.0
230
1.0
0
LINE
5
18383
330
1835A
100
AcDbEntity
67
0
8
muratura
62
256
6
ByLayer
370
-1
48
1.0
60
0
100
AcDbLine
10
108.323764878088
20
158.145152839535
30
0.0
11
107.822425446458
21
158.145152839535
31
0.0
39
0.0
210
0.0
220
0.0
230
1.0
0
LINE
5
18384
330
1835A
100
AcDbEntity
67
0
8
aperture
62
256
6
ByLayer
370
-1
48
1.0
60
0
100
AcDbLine
10
103.474850129325
20
159.2538122011
30
0.0
11
103.465023055549
21
159.59324946398
31
0.0
39
0.0
210
0.0
220
0.0
230
1.0
0
LINE
5
18385
330
1835A
100
AcDbEntity
67
0
8
muratura
62
256
6
ByLayer
370
-1
48
1.0
60
0
100
AcDbLine
10
109.553977138511
20
157.795152839535
30
0.0
11
109.391420753886
21
163.683955533245
31
0.0
39
0.0
210
0.0
220
0.0
230
1.0
0
LINE
5
18386
330
1835A
100
AcDbEntity
67
0
8
muratura
62
256
6
ByLayer
370
-1
48
1.0
60
0
100
AcDbLine
10
108.965613569703
20
163.08027787351
30
0.0
11
105.835728906985
21
163.053407851455
31
0.0
39
0.0
210
0.0
220
0.0
230
1.0
0
LINE
5
18387
330
1835A
100
AcDbEntity
67
0
8
muratura
62
256
6
ByLayer
370
-1
48
1.0
60
0
100
AcDbLine
10
109.391420753886
20
163.683955533245
30
0.0
11
106.630548624858
21
163.660253479338
31
0.0
39
0.0
210
0.0
220
0.0
230
1.0
0
LINE
5
18388
330
1835A
100
AcDbEntity
67
0
8
muratura
62
256
6
ByLayer
370
-1
48
1.0
60
0
100
AcDbLine
10
105.835728906985
20
163.053407851455
30
0.0
11
105.823882060201
21
164.433356999873
31
0.0
39
0.0
210
0.0
220
0.0
230
1.0
0
LINE
5
18389
330
1835A
100
AcDbEntity
67
0
8
muratura
62
256
6
ByLayer
370
-1
48
1.0
60
0
100
AcDbLine
10
104.965402762625
20
163.045936112009
30
0.0
11
104.960251959675
21
163.645914002626
31
0.0
39
0.0
210
0.0
220
0.0
230
1.0
0
LINE
5
1838A
330
1835A
100
AcDbEntity
67
0
8
muratura
62
256
6
ByLayer
370
-1
48
1.0
60
0
100
AcDbLine
10
104.960251959675
20
163.645914002626
30
0.0
11
104.09028401828
21
163.638445338348
31
0.0
39
0.0
210
0.0
220
0.0
230
1.0
0
LINE
5
1838B
330
1835A
100
AcDbEntity
67
0
8
muratura
62
256
6
ByLayer
370
-1
48
1.0
60
0
100
AcDbLine
10
104.965402762625
20
163.045936112009
30
0.0
11
103.36546172098
21
163.032200637476
31
0.0
39
0.0
210
0.0
220
0.0
230
1.0
0
LINE
5
1838C
330
1835A
100
AcDbEntity
67
0
8
muratura
62
256
6
ByLayer
370
-1
48
1.0
60
0
100
AcDbLine
10
108.323764878088
20
157.895152839535
30
0.0
11
107.822425446458
21
157.895152839535
31
0.0
39
0.0
210
0.0
220
0.0
230
1.0
0
LINE
5
1838D
330
1835A
100
AcDbEntity
67
0
8
aperture
62
256
6
ByLayer
370
-1
48
1.0
60
0
100
AcDbLine
10
108.323764878088
20
158.445152839535
30
0.0
11
107.822425446458
21
158.145152839535
31
0.0
39
0.0
210
0.0
220
0.0
230
1.0
0
LINE
5
1838E
330
1835A
100
AcDbEntity
67
0
8
aperture
62
256
6
ByLayer
370
-1
48
1.0
60
0
100
AcDbLine
10
107.822425446458
20
158.445152839535
30
0.0
11
108.323764878088
21
158.145152839535
31
0.0
39
0.0
210
0.0
220
0.0
230
1.0
0
LINE
5
1838F
330
1835A
100
AcDbEntity
67
0
8
aperture
62
256
6
ByLayer
370
-1
48
1.0
60
0
100
AcDbLine
10
108.323764878088
20
158.445152839535
30
0.0
11
107.822425446458
21
158.445152839535
31
0.0
39
0.0
210
0.0
220
0.0
230
1.0
0
LINE
5
18390
330
1835A
100
AcDbEntity
67
0
8
aperture
62
256
6
ByLayer
370
-1
48
1.0
60
0
100
AcDbLine
10
103.465023055549
20
159.59324946398
30
0.0
11
103.074936634224
21
159.2538122011
31
0.0
39
0.0
210
0.0
220
0.0
230
1.0
0
LINE
5
18391
330
1835A
100
AcDbEntity
67
0
8
aperture
62
256
6
ByLayer
370
-1
48
1.0
60
0
100
AcDbLine
10
103.474850129325
20
159.2538122011
30
0.0
11
103.074936634224
21
159.593249463979
31
0.0
39
0.0
210
0.0
220
0.0
230
1.0
0
LINE
5
18392
330
1835A
100
AcDbEntity
67
0
8
muratura
62
256
6
ByLayer
370
-1
48
1.0
60
0
100
AcDbLine
10
109.073764878088
20
158.445152839535
30
0.0
11
108.965613569703
21
163.08027787351
31
0.0
39
0.0
210
0.0
220
0.0
230
1.0
0
LINE
5
18393
330
1835A
100
AcDbEntity
67
0
8
muratura
62
256
6
ByLayer
370
-1
48
1.0
60
0
100
AcDbLine
10
103.498261687439
20
158.445152839535
30
0.0
11
103.474850129325
21
159.253812201101
31
0.0
39
0.0
210
0.0
220
0.0
230
1.0
0
LINE
5
18394
330
1835A
100
AcDbEntity
67
0
8
muratura
62
256
6
ByLayer
370
-1
48
1.0
60
0
100
AcDbLine
10
102.874609350793
20
157.795152839535
30
0.0
11
102.704315404687
21
165.064299988657
31
0.0
39
0.0
210
0.0
220
0.0
230
1.0
0
LINE
5
18395
330
1835A
100
AcDbEntity
67
0
8
muratura
62
256
6
ByLayer
370
-1
48
1.0
60
0
100
AcDbLine
10
103.074936634223
20
159.2538122011
30
0.0
11
103.074936634223
21
159.593249463979
31
0.0
39
0.0
210
0.0
220
0.0
230
1.0
0
LINE
5
18396
330
1835A
100
AcDbEntity
67
0
8
muratura
62
256
6
ByLayer
370
-1
48
1.0
60
0
100
AcDbLine
10
103.465023055549
20
159.59324946398
30
0.0
11
103.36546172098
21
163.032200637476
31
0.0
39
0.0
210
0.0
220
0.0
230
1.0
0
LINE
5
18397
330
1835A
100
AcDbEntity
67
0
8
muratura
62
256
6
ByLayer
370
-1
48
1.0
60
0
100
AcDbLine
10
103.474850129325
20
159.2538122011
30
0.0
11
102.840437411003
21
159.2538122011
31
0.0
39
0.0
210
0.0
220
0.0
230
1.0
0
LINE
5
18398
330
1835A
100
AcDbEntity
67
0
8
muratura
62
256
6
ByLayer
370
-1
48
1.0
60
0
100
AcDbLine
10
103.465023055549
20
159.593249463979
30
0.0
11
102.83248543125
21
159.593249463979
31
0.0
39
0.0
210
0.0
220
0.0
230
1.0
0
LINE
5
18399
330
1835A
100
AcDbEntity
67
0
8
muratura
62
256
6
ByLayer
370
-1
48
1.0
60
0
100
AcDbLine
10
104.09028401828
20
163.638445338348
30
0.0
11
104.084274748172
21
164.338419544068
31
0.0
39
0.0
210
0.0
220
0.0
230
1.0
0
LINE
5
1839A
330
1835A
100
AcDbEntity
67
0
8
muratura
62
256
6
ByLayer
370
-1
48
1.0
60
0
100
AcDbLine
10
104.084274748172
20
164.338419544068
30
0.0
11
105.823882060201
21
164.433356999873
31
0.0
39
0.0
210
0.0
220
0.0
230
1.0
0
LINE
5
1839B
330
1835A
100
AcDbEntity
67
0
8
muratura
62
256
6
ByLayer
370
-1
48
1.0
60
0
100
AcDbLine
10
102.704315404687
20
165.064299988657
30
0.0
11
106.616661898725
21
165.277812670401
31
0.0
39
0.0
210
0.0
220
0.0
230
1.0
0
LINE
5
1839C
330
1835A
100
AcDbEntity
67
0
8
muratura
62
256
6
ByLayer
370
-1
48
1.0
60
0
100
AcDbLine
10
106.630548624858
20
163.660253479338
30
0.0
11
106.616661898725
21
165.277812670401
31
0.0
39
0.0
210
0.0
220
0.0
230
1.0
0
HATCH
5
1839D
330
1835A
100
AcDbEntity
67
0
8
muratura
62
256
6
ByLayer
370
-1
48
1.0
60
0
100
AcDbHatch
10
0.0
20
0.0
30
0.0
210
0.0
220
0.0
230
1.0
2
AR-CONC
70
0
71
0
91
4
92
7
72
1
73
1
93
18
10
109.391420753886
20
163.683955533245
42
0.0
10
106.630548624858
20
163.660253479338
42
0.0
10
106.616661898725
20
165.277812670401
42
0.0
10
102.704315404687
20
165.064299988657
42
0.0
10
102.83248543125
20
159.593249463979
42
0.0
10
103.465023055549
20
159.593249463979
42
0.0
10
103.36546172098
20
163.032200637476
42
0.0
10
104.965402762625
20
163.045936112009
42
0.0
10
104.960251959675
20
163.645914002626
42
0.0
10
104.09028401828
20
163.638445338348
42
0.0
10
104.084274748172
20
164.338419544068
42
0.0
10
105.823882060201
20
164.433356999873
42
0.0
10
105.835728906985
20
163.053407851455
42
0.0
10
108.965613569703
20
163.08027787351
42
0.0
10
109.073764878088
20
158.445152839535
42
0.0
10
108.323764878088
20
158.445152839535
42
0.0
10
108.323764878088
20
157.795152839535
42
0.0
10
109.553977138511
20
157.795152839535
42
0.0
97
0
92
7
72
1
73
1
93
6
10
107.822425446458
20
158.445152839535
42
0.0
10
107.018528905758
20
158.445152839535
42
0.0
10
107.018528905758
20
158.144933516997
42
0.0
10
106.718528905758
20
158.144933516997
42
0.0
10
106.718528905758
20
157.795152839535
42
0.0
10
107.822425446458
20
157.795152839535
42
0.0
97
0
92
7
72
1
73
1
93
6
10
105.658528905758
20
158.213277546773
42
0.0
10
105.478528905758
20
158.213277546773
42
0.0
10
105.478528905758
20
158.445152839535
42
0.0
10
104.578528905758
20
158.445152839535
42
0.0
10
104.578528905758
20
157.795152839535
42
0.0
10
105.658528905758
20
157.795152839535
42
0.0
97
0
92
23
72
1
73
1
93
6
10
104.078528905758
20
158.445152839535
42
0.0
10
103.498261687439
20
158.445152839535
42
0.0
10
103.474850129325
20
159.2538122011
42
0.0
10
102.840437411003
20
159.2538122011
42
0.0
10
102.874609350793
20
157.795152839535
42
0.0
10
104.078528905758
20
157.795152839535
42
0.0
97
0
75
0
76
1
52
0.0
41
0.02
77
0
78
13
53
50.0
43
0.0
44
0.0
45
3.64369337992008
46
-0.31878171077806
79
2
49
0.381
49
-4.191
53
355.0
43
0.0
44
0.0
45
-0.70485651951334
46
3.8211328576436
79
2
49
0.3048
49
-3.3528
53
100.451
43
0.30364
44
-0.026565
45
2.93885003331918
46
3.50233375640584
79
2
49
0.3238
49
-3.5618
53
46.1842
43
0.0
44
1.016
45
5.4215808178426
46
-0.84084655865454
79
2
49
0.5715
49
-6.2865
53
96.6356
43
0.451798
44
0.94593
45
4.74808468932474
46
4.94851111780098
79
2
49
0.4857
49
-5.3427
53
351.184
43
0.0
44
1.016
45
4.74809211627868
46
4.94850235721195
79
2
49
0.4572
49
-5.0292
53
21.0
43
0.508
44
0.762
45
3.03229759670767
46
-2.04531037033525
79
2
49
0.381
49
-4.191
53
326.0
43
0.508
44
0.762
45
1.23604056695294
46
3.68375932244639
79
2
49
0.3048
49
-3.3528
53
71.4514
43
0.76069
44
0.591558
45
4.26832981540249
46
1.63845715432115
79
2
49
0.3238
49
-3.5618
53
37.5
43
0.0
44
0.0
45
0.06177206501184
46
1.69110077746306
79
6
49
0.0
49
-3.31216
49
0.0
49
-3.4036
49
0.0
49
-3.3655
53
7.5
43
0.0
44
0.0
45
1.33639325020611
46
2.00361149636239
79
6
49
0.0
49
-1.94056
49
0.0
49
-3.23596
49
0.0
49
-1.2827
53
327.5
43
-1.13284
44
0.0
45
2.71181190333743
46
-0.11457487985347
79
6
49
0.0
49
-1.27
49
0.0
49
-3.9624
49
0.0
49
-5.2578
53
317.5
43
-1.64084
44
0.0
45
2.96258362772036
46
0.50852982066666
79
6
49
0.0
49
-1.651
49
0.0
49
-2.63144
49
0.0
49
-3.7338
47
0.0
98
1
10
0.0
20
0.0
1001
ACAD
1010
0.0
1020
0.0
1030
0.0
0
HATCH
5
1839E
330
1835A
100
AcDbEntity
67
0
8
muratura
62
256
6
ByLayer
370
-1
48
1.0
60
0
100
AcDbHatch
10
0.0
20
0.0
30
0.0
210
0.0
220
0.0
230
1.0
2
AR-CONC
70
0
71
0
91
4
92
7
72
1
73
1
93
18
10
106.616661898725
20
165.277812670401
42
0.0
10
102.704315404687
20
165.064299988657
42
0.0
10
102.83248543125
20
159.593249463979
42
0.0
10
103.465023055549
20
159.593249463979
42
0.0
10
103.36546172098
20
163.032200637476
42
0.0
10
104.965402762625
20
163.045936112009
42
0.0
10
104.960251959675
20
163.645914002626
42
0.0
10
104.09028401828
20
163.638445338348
42
0.0
10
104.084274748172
20
164.338419544068
42
0.0
10
105.823882060201
20
164.433356999873
42
0.0
10
105.835728906985
20
163.053407851455
42
0.0
10
108.965613569703
20
163.08027787351
42
0.0
10
109.073764878088
20
158.445152839535
42
0.0
10
108.323764878088
20
158.445152839535
42
0.0
10
108.323764878088
20
157.795152839535
42
0.0
10
109.553977138511
20
157.795152839535
42
0.0
10
109.391420753886
20
163.683955533245
42
0.0
10
106.630548624858
20
163.660253479338
42
0.0
97
0
92
23
72
1
73
1
93
6
10
103.474850129325
20
159.2538122011
42
0.0
10
102.840437411003
20
159.2538122011
42
0.0
10
102.874609350793
20
157.795152839535
42
0.0
10
104.078528905758
20
157.795152839535
42
0.0
10
104.078528905758
20
158.445152839535
42
0.0
10
103.498261687439
20
158.445152839535
42
0.0
97
0
92
7
72
1
73
1
93
6
10
105.478528905758
20
158.445152839535
42
0.0
10
104.578528905758
20
158.445152839535
42
0.0
10
104.578528905758
20
157.795152839535
42
0.0
10
105.658528905758
20
157.795152839535
42
0.0
10
105.658528905758
20
158.213277546773
42
0.0
10
105.478528905758
20
158.213277546773
42
0.0
97
0
92
7
72
1
73
1
93
6
10
107.822425446458
20
158.445152839535
42
0.0
10
107.018528905758
20
158.445152839535
42
0.0
10
107.018528905758
20
158.144933516997
42
0.0
10
106.718528905758
20
158.144933516997
42
0.0
10
106.718528905758
20
157.795152839535
42
0.0
10
107.822425446458
20
157.795152839535
42
0.0
97
0
75
0
76
1
52
0.0
41
0.002
77
0
78
13
53
50.0
43
0.0
44
0.0
45
0.36436933799201
46
-0.03187817107781
79
2
49
0.0381
49
-0.4191
53
355.0
43
0.0
44
0.0
45
-0.07048565195133
46
0.38211328576436
79
2
49
0.03048
49
-0.33528
53
100.451
43
0.030364
44
-0.0026565
45
0.29388500333192
46
0.35023337564058
79
2
49
0.03238
49
-0.35618
53
46.1842
43
0.0
44
0.1016
45
0.54215808178426
46
-0.08408465586545
79
2
49
0.05715
49
-0.62865
53
96.6356
43
0.0451798
44
0.094593
45
0.47480846893247
46
0.4948511117801
79
2
49
0.04857
49
-0.53427
53
351.184
43
0.0
44
0.1016
45
0.47480921162787
46
0.4948502357212
79
2
49
0.04572
49
-0.50292
53
21.0
43
0.0508
44
0.0762
45
0.30322975967077
46
-0.20453103703353
79
2
49
0.0381
49
-0.4191
53
326.0
43
0.0508
44
0.0762
45
0.12360405669529
46
0.36837593224464
79
2
49
0.03048
49
-0.33528
53
71.4514
43
0.076069
44
0.0591558
45
0.42683298154025
46
0.16384571543212
79
2
49
0.03238
49
-0.35618
53
37.5
43
0.0
44
0.0
45
0.00617720650118
46
0.16911007774631
79
6
49
0.0
49
-0.331216
49
0.0
49
-0.34036
49
0.0
49
-0.33655
53
7.5
43
0.0
44
0.0
45
0.13363932502061
46
0.20036114963624
79
6
49
0.0
49
-0.194056
49
0.0
49
-0.323596
49
0.0
49
-0.12827
53
327.5
43
-0.113284
44
0.0
45
0.27118119033374
46
-0.01145748798535
79
6
49
0.0
49
-0.127
49
0.0
49
-0.39624
49
0.0
49
-0.52578
53
317.5
43
-0.164084
44
0.0
45
0.29625836277204
46
0.05085298206667
79
6
49
0.0
49
-0.1651
49
0.0
49
-0.263144
49
0.0
49
-0.37338
47
0.0
98
1
10
0.0
20
0.0
1001
ACAD
1010
0.0
1020
0.0
1030
0.0
0
LINE
5
1839F
330
1835A
100
AcDbEntity
67
0
8
muratura
62
256
6
ByLayer
370
-1
48
1.0
60
0
100
AcDbLine
10
122.657894349847
20
163.593759388046
30
0.0
11
122.626239678377
21
167.280971498663
31
0.0
39
0.0
210
0.0
220
0.0
230
1.0
0
LINE
5
183A0
330
1835A
100
AcDbEntity
67
0
8
muratura
62
256
6
ByLayer
370
-1
48
1.0
60
0
100
AcDbLine
10
118.901384224811
20
157.795152839535
30
0.0
11
118.765387565726
21
163.600290070106
31
0.0
39
0.0
210
0.0
220
0.0
230
1.0
0
LINE
5
183A1
330
1835A
100
AcDbEntity
67
0
8
muratura
62
256
6
ByLayer
370
-1
48
1.0
60
0
100
AcDbLine
10
119.730539752106
20
158.445152839535
30
0.0
11
119.48386491515
21
162.935195729166
31
0.0
39
0.0
210
0.0
220
0.0
230
1.0
0
LINE
5
183A2
330
1835A
100
AcDbEntity
67
0
8
muratura
62
256
6
ByLayer
370
-1
48
1.0
60
0
100
AcDbLine
10
125.100539752106
20
158.445152839535
30
0.0
11
124.993937020059
21
163.013909328725
31
0.0
39
0.0
210
0.0
220
0.0
230
1.0
0
LINE
5
183A3
330
1835A
100
AcDbEntity
67
0
8
aperture
62
256
6
ByLayer
370
-1
48
1.0
60
0
100
AcDbLine
10
124.680539752106
20
158.445152839535
30
0.0
11
123.757055642765
21
158.445152839535
31
0.0
39
0.0
210
0.0
220
0.0
230
1.0
0
LINE
5
183A4
330
1835A
100
AcDbEntity
67
0
8
muratura
62
256
6
ByLayer
370
-1
48
1.0
60
0
100
AcDbLine
10
124.993937020059
20
163.013909328725
30
0.0
11
120.424614951169
21
162.935195729166
31
0.0
39
0.0
210
0.0
220
0.0
230
1.0
0
LINE
5
183A5
330
1835A
100
AcDbEntity
67
0
8
muratura
62
256
6
ByLayer
370
-1
48
1.0
60
0
100
AcDbLine
10
125.580752012529
20
157.795152839535
30
0.0
11
125.418195627903
21
163.683955533245
31
0.0
39
0.0
210
0.0
220
0.0
230
1.0
0
LINE
5
183A6
330
1835A
100
AcDbEntity
67
0
8
muratura
62
256
6
ByLayer
370
-1
48
1.0
60
0
100
AcDbLine
10
124.350539752106
20
157.795152839535
30
0.0
11
123.849200320475
21
157.795152839535
31
0.0
39
0.0
210
0.0
220
0.0
230
1.0
0
LINE
5
183A7
330
1835A
100
AcDbEntity
67
0
8
muratura
62
256
6
ByLayer
370
-1
48
1.0
60
0
100
AcDbLine
10
124.350539752106
20
157.795152839535
30
0.0
11
125.580752012529
21
157.795152839535
31
0.0
39
0.0
210
0.0
220
0.0
230
1.0
0
LINE
5
183A8
330
1835A
100
AcDbEntity
67
0
8
muratura
62
256
6
ByLayer
370
-1
48
1.0
60
0
100
AcDbLine
10
124.680539752106
20
158.445152839535
30
0.0
11
125.100539752106
21
158.445152839535
31
0.0
39
0.0
210
0.0
220
0.0
230
1.0
0
LINE
5
183A9
330
1835A
100
AcDbEntity
67
0
8
muratura
62
256
6
ByLayer
370
-1
48
1.0
60
0
100
AcDbLine
10
123.757055642765
20
157.895152839535
30
0.0
11
123.757055642765
21
158.445152839535
31
0.0
39
0.0
210
0.0
220
0.0
230
1.0
0
LINE
5
183AA
330
1835A
100
AcDbEntity
67
0
8
aperture
62
256
6
ByLayer
370
-1
48
1.0
60
0
100
AcDbLine
10
121.850539752106
20
157.895152839535
30
0.0
11
122.860539752106
21
157.895152839535
31
0.0
39
0.0
210
0.0
220
0.0
230
1.0
0
LINE
5
183AB
330
1835A
100
AcDbEntity
67
0
8
aperture
62
256
6
ByLayer
370
-1
48
1.0
60
0
100
AcDbLine
10
121.850539752106
20
157.795152839535
30
0.0
11
122.860539752106
21
157.795152839535
31
0.0
39
0.0
210
0.0
220
0.0
230
1.0
0
LINE
5
183AC
330
1835A
100
AcDbEntity
67
0
8
muratura
62
256
6
ByLayer
370
-1
48
1.0
60
0
100
AcDbLine
10
122.860539752106
20
157.795152839535
30
0.0
11
123.849200320475
21
157.795152839535
31
0.0
39
0.0
210
0.0
220
0.0
230
1.0
0
LINE
5
183AD
330
1835A
100
AcDbEntity
67
0
8
muratura
62
256
6
ByLayer
370
-1
48
1.0
60
0
100
AcDbLine
10
122.860539752106
20
158.445152839535
30
0.0
11
123.757055642765
21
158.445152839535
31
0.0
39
0.0
210
0.0
220
0.0
230
1.0
0
LINE
5
183AE
330
1835A
100
AcDbEntity
67
0
8
aperture
62
256
6
ByLayer
370
-1
48
1.0
60
0
100
AcDbLine
10
120.530539752105
20
157.895152839535
30
0.0
11
121.410539752106
21
158.445152839535
31
0.0
39
0.0
210
0.0
220
0.0
230
1.0
0
LINE
5
183AF
330
1835A
100
AcDbEntity
67
0
8
muratura
62
256
6
ByLayer
370
-1
48
1.0
60
0
100
AcDbLine
10
120.530539752105
20
157.895152839535
30
0.0
11
121.410539752106
21
157.895152839535
31
0.0
39
0.0
210
0.0
220
0.0
230
1.0
0
LINE
5
183B0
330
1835A
100
AcDbEntity
67
0
8
muratura
62
256
6
ByLayer
370
-1
48
1.0
60
0
100
AcDbLine
10
120.105303779775
20
157.795152839535
30
0.0
11
121.410539752106
21
157.795152839535
31
0.0
39
0.0
210
0.0
220
0.0
230
1.0
0
LINE
5
183B1
330
1835A
100
AcDbEntity
67
0
8
muratura
62
256
6
ByLayer
370
-1
48
1.0
60
0
100
AcDbLine
10
121.410539752106
20
157.795152839535
30
0.0
11
121.850539752106
21
157.795152839535
31
0.0
39
0.0
210
0.0
220
0.0
230
1.0
0
LINE
5
183B2
330
1835A
100
AcDbEntity
67
0
8
muratura
62
256
6
ByLayer
370
-1
48
1.0
60
0
100
AcDbLine
10
121.410539752106
20
158.445152839535
30
0.0
11
121.850539752106
21
158.445152839535
31
0.0
39
0.0
210
0.0
220
0.0
230
1.0
0
LINE
5
183B3
330
1835A
100
AcDbEntity
67
0
8
muratura
62
256
6
ByLayer
370
-1
48
1.0
60
0
100
AcDbLine
10
121.410539752106
20
157.895152839535
30
0.0
11
121.410539752106
21
158.445152839535
31
0.0
39
0.0
210
0.0
220
0.0
230
1.0
0
LINE
5
183B4
330
1835A
100
AcDbEntity
67
0
8
muratura
62
256
6
ByLayer
370
-1
48
1.0
60
0
100
AcDbLine
10
120.530539752105
20
157.895152839535
30
0.0
11
120.530539752106
21
158.445152839535
31
0.0
39
0.0
210
0.0
220
0.0
230
1.0
0
LINE
5
183B5
330
1835A
100
AcDbEntity
67
0
8
muratura
62
256
6
ByLayer
370
-1
48
1.0
60
0
100
AcDbLine
10
119.730539752106
20
158.445152839535
30
0.0
11
120.530539752106
21
158.445152839535
31
0.0
39
0.0
210
0.0
220
0.0
230
1.0
0
LINE
5
183B6
330
1835A
100
AcDbEntity
67
0
8
muratura
62
256
6
ByLayer
370
-1
48
1.0
60
0
100
AcDbLine
10
118.901384224811
20
157.795152839535
30
0.0
11
120.105303779775
21
157.795152839535
31
0.0
39
0.0
210
0.0
220
0.0
230
1.0
0
LINE
5
183B7
330
1835A
100
AcDbEntity
67
0
8
muratura
62
256
6
ByLayer
370
-1
48
1.0
60
0
100
AcDbLine
10
124.680539752106
20
157.895152839535
30
0.0
11
124.680539752106
21
158.445152839535
31
0.0
39
0.0
210
0.0
220
0.0
230
1.0
0
LINE
5
183B8
330
1835A
100
AcDbEntity
67
0
8
muratura
62
256
6
ByLayer
370
-1
48
1.0
60
0
100
AcDbLine
10
122.860539752106
20
157.795152839535
30
0.0
11
122.860539752106
21
158.445152839535
31
0.0
39
0.0
210
0.0
220
0.0
230
1.0
0
LINE
5
183B9
330
1835A
100
AcDbEntity
67
0
8
muratura
62
256
6
ByLayer
370
-1
48
1.0
60
0
100
AcDbLine
10
124.680539752106
20
157.895152839535
30
0.0
11
123.757055642765
21
157.895152839535
31
0.0
39
0.0
210
0.0
220
0.0
230
1.0
0
LINE
5
183BA
330
1835A
100
AcDbEntity
67
0
8
aperture
62
256
6
ByLayer
370
-1
48
1.0
60
0
100
AcDbLine
10
124.680539752106
20
158.445152839535
30
0.0
11
123.757055642765
21
157.895152839535
31
0.0
39
0.0
210
0.0
220
0.0
230
1.0
0
LINE
5
183BB
330
1835A
100
AcDbEntity
67
0
8
aperture
62
256
6
ByLayer
370
-1
48
1.0
60
0
100
AcDbLine
10
123.757055642765
20
158.445152839535
30
0.0
11
124.680539752106
21
157.895152839535
31
0.0
39
0.0
210
0.0
220
0.0
230
1.0
0
LINE
5
183BC
330
1835A
100
AcDbEntity
67
0
8
muratura
62
256
6
ByLayer
370
-1
48
1.0
60
0
100
AcDbLine
10
121.850539752106
20
157.795152839535
30
0.0
11
121.850539752106
21
158.445152839535
31
0.0
39
0.0
210
0.0
220
0.0
230
1.0
0
LINE
5
183BD
330
1835A
100
AcDbEntity
67
0
8
aperture
62
256
6
ByLayer
370
-1
48
1.0
60
0
100
AcDbLine
10
121.410539752106
20
157.895152839535
30
0.0
11
120.530539752106
21
158.445152839535
31
0.0
39
0.0
210
0.0
220
0.0
230
1.0
0
LINE
5
183BE
330
1835A
100
AcDbEntity
67
0
8
aperture
62
256
6
ByLayer
370
-1
48
1.0
60
0
100
AcDbLine
10
121.410539752106
20
158.445152839535
30
0.0
11
120.530539752106
21
158.445152839535
31
0.0
39
0.0
210
0.0
220
0.0
230
1.0
0
LINE
5
183BF
330
1835A
100
AcDbEntity
67
0
8
aperture
62
256
6
ByLayer
370
-1
48
1.0
60
0
100
AcDbLine
10
121.850539752106
20
157.995152839535
30
0.0
11
122.860539752106
21
157.995152839535
31
0.0
39
0.0
210
0.0
220
0.0
230
1.0
0
LINE
5
183C0
330
1835A
100
AcDbEntity
67
0
8
aperture
62
256
6
ByLayer
370
-1
48
1.0
60
0
100
AcDbLine
10
122.355539752106
20
157.770103592953
30
0.0
11
122.355539752106
21
158.060100987868
31
0.0
39
0.0
210
0.0
220
0.0
230
1.0
0
LINE
5
183C1
330
1835A
100
AcDbEntity
67
0
8
aperture
62
256
6
ByLayer
370
-1
48
1.0
60
0
100
AcDbLine
10
121.789514259179
20
157.738476189106
30
0.0
11
122.923994534604
21
157.738476189106
31
0.0
39
0.0
210
0.0
220
0.0
230
1.0
0
LINE
5
183C2
330
1835A
100
AcDbEntity
67
0
8
muratura
62
256
6
ByLayer
370
-1
48
1.0
60
0
100
AcDbLine
10
122.923994534604
20
157.738476189106
30
0.0
11
122.923994534604
21
157.795152839535
31
0.0
39
0.0
210
0.0
220
0.0
230
1.0
0
LINE
5
183C3
330
1835A
100
AcDbEntity
67
0
8
muratura
62
256
6
ByLayer
370
-1
48
1.0
60
0
100
AcDbLine
10
121.789514259179
20
157.738476189106
30
0.0
11
121.789514259179
21
157.795152839535
31
0.0
39
0.0
210
0.0
220
0.0
230
1.0
0
LINE
5
183C4
330
1835A
100
AcDbEntity
67
0
8
muratura
62
256
6
ByLayer
370
-1
48
1.0
60
0
100
AcDbLine
10
120.424614951169
20
162.935195729166
30
0.0
11
120.419292256118
21
163.555196024352
31
0.0
39
0.0
210
0.0
220
0.0
230
1.0
0
LINE
5
183C5
330
1835A
100
AcDbEntity
67
0
8
muratura
62
256
6
ByLayer
370
-1
48
1.0
60
0
100
AcDbLine
10
125.419372274155
20
163.641330092026
30
0.0
11
122.657894349847
21
163.593759388046
31
0.0
39
0.0
210
0.0
220
0.0
230
1.0
0
LINE
5
183C6
330
1835A
100
AcDbEntity
67
0
8
aperture
62
256
6
ByLayer
370
-1
48
1.0
60
0
100
AcDbLine
10
120.424614951169
20
162.935195729166
30
0.0
11
119.644537157688
21
162.935195729166
31
0.0
39
0.0
210
0.0
220
0.0
230
1.0
0
LINE
5
183C7
330
1835A
100
AcDbEntity
67
0
8
aperture
62
256
6
ByLayer
370
-1
48
1.0
60
0
100
AcDbLine
10
120.419292256118
20
163.555196024352
30
0.0
11
119.639214462636
21
163.555196024352
31
0.0
39
0.0
210
0.0
220
0.0
230
1.0
0
LINE
5
183C8
330
1835A
100
AcDbEntity
67
0
8
muratura
62
256
6
ByLayer
370
-1
48
1.0
60
0
100
AcDbLine
10
122.019054906057
20
163.582754396189
30
0.0
11
121.995289526807
21
166.522658341346
31
0.0
39
0.0
210
0.0
220
0.0
230
1.0
0
LINE
5
183C9
330
1835A
100
AcDbEntity
67
0
8
muratura
62
256
6
ByLayer
370
-1
48
1.0
60
0
100
AcDbLine
10
119.644537157688
20
162.935195729166
30
0.0
11
119.639214462636
21
163.555196024352
31
0.0
39
0.0
210
0.0
220
0.0
230
1.0
0
LINE
5
183CA
330
1835A
100
AcDbEntity
67
0
8
muratura
62
256
6
ByLayer
370
-1
48
1.0
60
0
100
AcDbLine
10
119.644537157688
20
162.935195729166
30
0.0
11
119.48386491515
21
162.935195729166
31
0.0
39
0.0
210
0.0
220
0.0
230
1.0
0
LINE
5
183CB
330
1835A
100
AcDbEntity
67
0
8
muratura
62
256
6
ByLayer
370
-1
48
1.0
60
0
100
AcDbLine
10
119.639214462636
20
163.555196024352
30
0.0
11
119.429194696399
21
163.555196024352
31
0.0
39
0.0
210
0.0
220
0.0
230
1.0
0
LINE
5
183CC
330
1835A
100
AcDbEntity
67
0
8
muratura
62
256
6
ByLayer
370
-1
48
1.0
60
0
100
AcDbLine
10
119.427319320832
20
163.600290070106
30
0.0
11
118.765387565726
21
163.600290070106
31
0.0
39
0.0
210
0.0
220
0.0
230
1.0
0
LINE
5
183CD
330
1835A
100
AcDbEntity
67
0
8
muratura
62
256
6
ByLayer
370
-1
48
1.0
60
0
100
AcDbLine
10
119.341492076824
20
164.620290070106
30
0.0
11
118.741492076824
21
164.620290070106
31
0.0
39
0.0
210
0.0
220
0.0
230
1.0
0
LINE
5
183CE
330
1835A
100
AcDbEntity
67
0
8
muratura
62
256
6
ByLayer
370
-1
48
1.0
60
0
100
AcDbLine
10
121.995289526807
20
166.522658341346
30
0.0
11
119.36560785285
21
166.481740207784
31
0.0
39
0.0
210
0.0
220
0.0
230
1.0
0
LINE
5
183CF
330
1835A
100
AcDbEntity
67
0
8
muratura
62
256
6
ByLayer
370
-1
48
1.0
60
0
100
AcDbLine
10
119.341492076824
20
164.620290070106
30
0.0
11
119.345863797177
21
164.957734714
31
0.0
39
0.0
210
0.0
220
0.0
230
1.0
0
LINE
5
183D0
330
1835A
100
AcDbEntity
67
0
8
muratura
62
256
6
ByLayer
370
-1
48
1.0
60
0
100
AcDbLine
10
119.429194696399
20
163.555196024352
30
0.0
11
119.429194696399
21
163.600290070106
31
0.0
39
0.0
210
0.0
220
0.0
230
1.0
0
LINE
5
183D1
330
1835A
100
AcDbEntity
67
0
8
muratura
62
256
6
ByLayer
370
-1
48
1.0
60
0
100
AcDbLine
10
119.345863797177
20
164.957734714
30
0.0
11
118.911986891866
21
164.957734714
31
0.0
39
0.0
210
0.0
220
0.0
230
1.0
0
LINE
5
183D2
330
1835A
100
AcDbEntity
67
0
8
muratura
62
256
6
ByLayer
370
-1
48
1.0
60
0
100
AcDbLine
10
118.911986891866
20
164.957734714
30
0.0
11
118.902042664912
21
165.382212804159
31
0.0
39
0.0
210
0.0
220
0.0
230
1.0
0
LINE
5
183D3
330
1835A
100
AcDbEntity
67
0
8
muratura
62
256
6
ByLayer
370
-1
48
1.0
60
0
100
AcDbLine
10
119.351363068064
20
165.382212804159
30
0.0
11
119.36560785285
21
166.481740207784
31
0.0
39
0.0
210
0.0
220
0.0
230
1.0
0
LINE
5
183D4
330
1835A
100
AcDbEntity
67
0
8
aperture
62
256
6
ByLayer
370
-1
48
1.0
60
0
100
AcDbLine
10
119.351363068064
20
165.382212804159
30
0.0
11
119.345863797177
21
164.957734714
31
0.0
39
0.0
210
0.0
220
0.0
230
1.0
0
LINE
5
183D5
330
1835A
100
AcDbEntity
67
0
8
aperture
62
256
6
ByLayer
370
-1
48
1.0
60
0
100
AcDbLine
10
119.351363068064
20
165.382212804159
30
0.0
11
118.911986891866
21
164.957734714
31
0.0
39
0.0
210
0.0
220
0.0
230
1.0
0
LINE
5
183D6
330
1835A
100
AcDbEntity
67
0
8
aperture
62
256
6
ByLayer
370
-1
48
1.0
60
0
100
AcDbLine
10
118.902042664912
20
165.382212804159
30
0.0
11
119.345863797177
21
164.957734714
31
0.0
39
0.0
210
0.0
220
0.0
230
1.0
0
LINE
5
183D7
330
1835A
100
AcDbEntity
67
0
8
muratura
62
256
6
ByLayer
370
-1
48
1.0
60
0
100
AcDbLine
10
118.741492076824
20
164.620290070106
30
0.0
11
118.68059871459
21
167.219576895071
31
0.0
39
0.0
210
0.0
220
0.0
230
1.0
0
LINE
5
183D8
330
1835A
100
AcDbEntity
67
0
8
aperture
62
256
6
ByLayer
370
-1
48
1.0
60
0
100
AcDbLine
10
118.741492076824
20
164.620290070106
30
0.0
11
118.765387565726
21
163.600290070106
31
0.0
39
0.0
210
0.0
220
0.0
230
1.0
0
LINE
5
183D9
330
1835A
100
AcDbEntity
67
0
8
aperture
62
256
6
ByLayer
370
-1
48
1.0
60
0
100
AcDbLine
10
118.841519514159
20
164.620290070106
30
0.0
11
118.865415003061
21
163.600290070106
31
0.0
39
0.0
210
0.0
220
0.0
230
1.0
0
LINE
5
183DA
330
1835A
100
AcDbEntity
67
0
8
aperture
62
256
6
ByLayer
370
-1
48
1.0
60
0
100
AcDbLine
10
118.601343151087
20
164.110290070106
30
0.0
11
119.026542980513
21
164.110290070106
31
0.0
39
0.0
210
0.0
220
0.0
230
1.0
0
LINE
5
183DB
330
1835A
100
AcDbEntity
67
0
8
muratura
62
256
6
ByLayer
370
-1
48
1.0
60
0
100
AcDbLine
10
122.626239678377
20
167.280971498663
30
0.0
11
118.68059871459
21
167.219576895071
31
0.0
39
0.0
210
0.0
220
0.0
230
1.0
0
LINE
5
183DC
330
1835A
100
AcDbEntity
67
0
8
aperture
62
256
6
ByLayer
370
-1
48
1.0
60
0
100
AcDbLine
10
120.419292256118
20
163.455196024352
30
0.0
11
119.639214462636
21
163.455196024352
31
0.0
39
0.0
210
0.0
220
0.0
230
1.0
0
LINE
5
183DD
330
1835A
100
AcDbEntity
67
0
8
aperture
62
256
6
ByLayer
370
-1
48
1.0
60
0
100
AcDbLine
10
120.029253359377
20
163.260058891056
30
0.0
11
120.029253359377
21
163.696009148336
31
0.0
39
0.0
210
0.0
220
0.0
230
1.0
0
LINE
5
183DE
330
1835A
100
AcDbEntity
67
0
8
muratura
62
256
6
ByLayer
370
-1
48
1.0
60
0
100
AcDbLine
10
122.019054906057
20
163.582754396189
30
0.0
11
120.419292256118
21
163.555196024352
31
0.0
39
0.0
210
0.0
220
0.0
230
1.0
0
LINE
5
183DF
330
1835A
100
AcDbEntity
67
0
8
muratura
62
256
6
ByLayer
370
-1
48
1.0
60
0
100
AcDbLine
10
119.351363068064
20
165.382212804159
30
0.0
11
118.902042664912
21
165.382212804159
31
0.0
39
0.0
210
0.0
220
0.0
230
1.0
0
HATCH
5
183E0
330
1835A
100
AcDbEntity
67
0
8
muratura
62
256
6
ByLayer
370
-1
48
1.0
60
0
100
AcDbHatch
10
0.0
20
0.0
30
0.0
210
0.0
220
0.0
230
1.0
2
AR-CONC
70
0
71
0
91
2
92
7
72
1
73
1
93
26
10
122.627513716764
20
167.132568449375
42
0.0
10
118.684074542781
20
167.071208105873
42
0.0
10
118.741492076824
20
164.620290070106
42
0.0
10
119.341492076824
20
164.620290070106
42
0.0
10
119.345863797177
20
164.957734714
42
0.0
10
118.911986891866
20
164.957734714
42
0.0
10
118.902042664912
20
165.382212804159
42
0.0
10
119.351363068064
20
165.382212804159
42
0.0
10
119.36560785285
20
166.481740207784
42
0.0
10
121.995289526807
20
166.522658341346
42
0.0
10
122.019054906057
20
163.582754396189
42
0.0
10
120.419292256118
20
163.555196024352
42
0.0
10
120.424614951169
20
162.935195729166
42
0.0
10
124.993937020059
20
163.013909328725
42
0.0
10
125.100539752106
20
158.445152839535
42
0.0
10
124.680539752106
20
158.445152839535
42
0.0
10
124.680539752106
20
157.895152839535
42
0.0
10
123.757055642765
20
157.895152839535
42
0.0
10
123.757055642765
20
158.445152839535
42
0.0
10
122.860539752106
20
158.445152839535
42
0.0
10
122.860539752106
20
157.795152839535
42
0.0
10
123.849200320475
20
157.795152839535
42
0.0
10
124.350539752106
20
157.795152839535
42
0.0
10
125.580752012529
20
157.795152839535
42
0.0
10
125.419372274155
20
163.641330092026
42
0.0
10
122.657894349847
20
163.593759388046
42
0.0
97
0
92
7
72
1
73
1
93
16
10
119.639214462637
20
163.555196024352
42
0.0
10
119.429194696399
20
163.555196024352
42
0.0
10
119.429194696399
20
163.600290070106
42
0.0
10
118.765387565726
20
163.600290070106
42
0.0
10
118.901384224811
20
157.795152839535
42
0.0
10
120.105303779775
20
157.795152839535
42
0.0
10
121.410539752106
20
157.795152839535
42
0.0
10
121.850539752106
20
157.795152839535
42
0.0
10
121.850539752106
20
158.445152839535
42
0.0
10
121.410539752106
20
158.445152839535
42
0.0
10
121.410539752106
20
157.895152839535
42
0.0
10
120.530539752105
20
157.895152839535
42
0.0
10
120.530539752105
20
158.445152839535
42
0.0
10
119.730539752106
20
158.445152839535
42
0.0
10
119.48386491515
20
162.935195729166
42
0.0
10
119.644537157688
20
162.935195729166
42
0.0
97
0
75
0
76
1
52
360.0
41
0.002
77
0
78
13
53
410.0
43
5.09032563017216
44
0.00000000000037
45
0.36436933799201
46
-0.03187817107781
79
2
49
0.0381
49
-0.4191
53
715.0
43
5.09032563017216
44
0.00000000000037
45
-0.07048565195133
46
0.38211328576436
79
2
49
0.03048
49
-0.33528
53
460.451
43
5.12068963017212
44
-0.00265649999963
45
0.29388500333192
46
0.35023337564058
79
2
49
0.03238
49
-0.35618
53
406.1842
43
5.09032563017216
44
0.10160000000033
45
0.54215808178426
46
-0.08408465586546
79
2
49
0.05715
49
-0.62865
53
456.6356
43
5.13550543017219
44
0.0945930000004
45
0.47480846893248
46
0.4948511117801
79
2
49
0.04857
49
-0.53427
53
711.184
43
5.09032563017216
44
0.10160000000033
45
0.47480921162787
46
0.49485023572119
79
2
49
0.04572
49
-0.50292
53
381.0
43
5.14112563017214
44
0.07620000000034
45
0.30322975967077
46
-0.20453103703353
79
2
49
0.0381
49
-0.4191
53
686.0
43
5.14112563017214
44
0.07620000000034
45
0.1236040566953
46
0.36837593224464
79
2
49
0.03048
49
-0.33528
53
431.4514
43
5.16639463017212
44
0.05915580000036
45
0.42683298154025
46
0.16384571543211
79
2
49
0.03238
49
-0.35618
53
397.5
43
5.09032563017216
44
0.00000000000037
45
0.00617720650118
46
0.16911007774631
79
6
49
0.0
49
-0.331216
49
0.0
49
-0.34036
49
0.0
49
-0.33655
53
367.5
43
5.09032563017216
44
0.00000000000037
45
0.13363932502061
46
0.20036114963624
79
6
49
0.0
49
-0.194056
49
0.0
49
-0.323596
49
0.0
49
-0.12827
53
687.5
43
4.97704163017214
44
0.00000000000037
45
0.27118119033374
46
-0.01145748798535
79
6
49
0.0
49
-0.127
49
0.0
49
-0.39624
49
0.0
49
-0.52578
53
677.5
43
4.92624163017216
44
0.00000000000037
45
0.29625836277204
46
0.05085298206667
79
6
49
0.0
49
-0.1651
49
0.0
49
-0.263144
49
0.0
49
-0.37338
47
0.0
98
1
10
0.0
20
0.0
1001
ACAD
1010
0.0
1020
0.0
1030
0.0
0
LINE
5
183E1
330
1835A
100
AcDbEntity
67
0
8
aperture
62
256
6
ByLayer
370
-1
48
1.0
60
0
100
AcDbLine
10
106.211124506415
20
157.770103592953
30
0.0
11
106.211124506415
21
158.060100987868
31
0.0
39
0.0
210
0.0
220
0.0
230
1.0
0
TEXT
5
183E2
330
1835A
100
AcDbEntity
67
0
8
aperture
62
256
6
ByLayer
370
-1
48
1.0
60
0
100
AcDbText
1
GROUND FLOOR
10
103.506437107251
20
155.254611741635
30
0.0
40
0.75
41
1.0
50
0.0
51
0.0
7
Standard
11
0.0
21
0.0
31
0.0
210
0.0
220
0.0
230
1.0
72
0
100
AcDbText
73
0
0
TEXT
5
183E3
330
1835A
100
AcDbEntity
67
0
8
aperture
62
256
6
ByLayer
370
-1
48
1.0
60
0
100
AcDbText
1
H=2.60 cm
10
105.456836112192
20
161.182033567928
30
0.0
40
0.2
41
1.0
50
0.0
51
0.0
7
Standard
11
0.0
21
0.0
31
0.0
210
0.0
220
0.0
230
1.0
72
0
100
AcDbText
73
0
0
TEXT
5
183E4
330
1835A
100
AcDbEntity
67
0
8
aperture
62
256
6
ByLayer
370
-1
48
1.0
60
0
100
AcDbText
1
H=2.76 cm
10
119.943526813325
20
159.768998462016
30
0.0
40
0.2
41
1.0
50
89.9999999999998
51
0.0
7
Standard
11
0.0
21
0.0
31
0.0
210
0.0
220
0.0
230
1.0
72
0
100
AcDbText
73
0
0
TEXT
5
183E5
330
1835A
100
AcDbEntity
67
0
8
aperture
62
256
6
ByLayer
370
-1
48
1.0
60
0
100
AcDbText
1
H=2.70 cm
10
124.940070823202
20
159.768998462016
30
0.0
40
0.2
41
1.0
50
89.9999999999998
51
0.0
7
Standard
11
0.0
21
0.0
31
0.0
210
0.0
220
0.0
230
1.0
72
0
100
AcDbText
73
0
0
TEXT
5
183E6
330
1835A
100
AcDbEntity
67
0
8
aperture
62
256
6
ByLayer
370
-1
48
1.0
60
0
100
AcDbText
1
H=3.61 cm
10
122.451674804681
20
159.768998462016
30
0.0
40
0.2
41
1.0
50
89.9999999999998
51
0.0
7
Standard
11
0.0
21
0.0
31
0.0
210
0.0
220
0.0
230
1.0
72
0
100
AcDbText
73
0
0
TEXT
5
183E7
330
1835A
100
AcDbEntity
67
0
8
aperture
62
256
6
ByLayer
370
-1
48
1.0
60
0
100
AcDbText
1
H=3.80 cm
10
121.920098330571
20
164.184254076966
30
0.0
40
0.2
41
1.0
50
89.9999999999998
51
0.0
7
Standard
11
0.0
21
0.0
31
0.0
210
0.0
220
0.0
230
1.0
72
0
100
AcDbText
73
0
0
TEXT
5
183E8
330
1835A
100
AcDbEntity
67
0
8
aperture
62
256
6
ByLayer
370
-1
48
1.0
60
0
100
AcDbText
1
H=2.78 cm
10
119.623284406929
20
164.184254076966
30
0.0
40
0.2
41
1.0
50
89.9999999999998
51
0.0
7
Standard
11
0.0
21
0.0
31
0.0
210
0.0
220
0.0
230
1.0
72
0
100
AcDbText
73
0
0
TEXT
5
183E9
330
1835A
100
AcDbEntity
67
0
8
aperture
62
256
6
ByLayer
370
-1
48
1.0
60
0
100
AcDbText
1
FIRST FLOOR
10
119.423332864963
20
155.254611741635
30
0.0
40
0.75
41
1.0
50
360.0
51
0.0
7
Standard
11
0.0
21
0.0
31
0.0
210
0.0
220
0.0
230
1.0
72
0
100
AcDbText
73
0
0
LWPOLYLINE
5
183EA
330
1835A
100
AcDbEntity
67
0
8
propspetti
62
256
6
ByLayer
370
-1
48
1.0
60
0
100
AcDbPolyline
90
12
70
1
38
0.0
39
0.0
40
0.0
41
0.0
10
121.995289526807
20
166.522658341346
40
0.0
41
0.0
42
0.0
10
119.36560785285
20
166.481740207784
40
0.0
41
0.0
42
0.0
10
119.351363068064
20
165.382212804159
40
0.0
41
0.0
42
0.0
10
119.345863797177
20
164.957734714
40
0.0
41
0.0
42
0.0
10
119.341492076824
20
164.620290070107
40
0.0
41
0.0
42
0.0
10
118.841519514159
20
164.620290070106
40
0.0
41
0.0
42
0.0
10
118.865415003061
20
163.600290070106
40
0.0
41
0.0
42
0.0
10
119.429194696399
20
163.600290070106
40
0.0
41
0.0
42
0.0
10
119.429194696399
20
163.555196024352
40
0.0
41
0.0
42
0.0
10
119.639214462636
20
163.555196024352
40
0.0
41
0.0
42
0.0
10
120.419292256117
20
163.555196024352
40
0.0
41
0.0
42
0.0
10
122.019054906057
20
163.582754396189
40
0.0
41
0.0
42
0.0
210
0.0
220
0.0
230
1.0
0
LWPOLYLINE
5
183EB
330
1835A
100
AcDbEntity
67
0
8
propspetti
62
256
6
ByLayer
370
-1
48
1.0
60
0
100
AcDbPolyline
90
14
70
1
38
0.0
39
0.0
40
0.0
41
0.0
10
124.993937020059
20
163.013909328725
40
0.0
41
0.0
42
0.0
10
120.424614951167
20
162.935195729166
40
0.0
41
0.0
42
0.0
10
119.644537157688
20
162.935195729166
40
0.0
41
0.0
42
0.0
10
119.48386491515
20
162.935195729166
40
0.0
41
0.0
42
0.0
10
119.730539752106
20
158.445152839535
40
0.0
41
0.0
42
0.0
10
120.530539752106
20
158.445152839535
40
0.0
41
0.0
42
0.0
10
121.410539752106
20
158.445152839535
40
0.0
41
0.0
42
0.0
10
121.850539752106
20
158.445152839535
40
0.0
41
0.0
42
0.0
10
121.850539752106
20
157.995152839535
40
0.0
41
0.0
42
0.0
10
122.860539752106
20
157.995152839535
40
0.0
41
0.0
42
0.0
10
122.860539752106
20
158.445152839535
40
0.0
41
0.0
42
0.0
10
123.757055642765
20
158.445152839535
40
0.0
41
0.0
42
0.0
10
124.680539752106
20
158.445152839535
40
0.0
41
0.0
42
0.0
10
125.100539752106
20
158.445152839535
40
0.0
41
0.0
42
0.0
210
0.0
220
0.0
230
1.0
0
LWPOLYLINE
5
183EC
330
1835A
100
AcDbEntity
67
0
8
propspetti
62
256
6
ByLayer
370
-1
48
1.0
60
0
100
AcDbPolyline
90
26
70
1
38
0.0
39
0.0
40
0.0
41
0.0
10
108.965613569703
20
163.08027787351
40
0.0
41
0.0
42
0.0
10
105.835728906985
20
163.053407851455
40
0.0
41
0.0
42
0.0
10
105.823882060201
20
164.433356999873
40
0.0
41
0.0
42
0.0
10
104.084274748172
20
164.338419544068
40
0.0
41
0.0
42
0.0
10
104.09028401828
20
163.638445338348
40
0.0
41
0.0
42
0.0
10
104.960251959675
20
163.645914002626
40
0.0
41
0.0
42
0.0
10
104.965402762625
20
163.045936112009
40
0.0
41
0.0
42
0.0
10
103.36546172098
20
163.032200637476
40
0.0
41
0.0
42
0.0
10
103.465023055549
20
159.59324946398
40
0.0
41
0.0
42
0.0
10
103.474850129325
20
159.2538122011
40
0.0
41
0.0
42
0.0
10
103.498261687439
20
158.445152839535
40
0.0
41
0.0
42
0.0
10
104.078528905758
20
158.445152839535
40
0.0
41
0.0
42
0.0
10
104.078528905758
20
157.995152839535
40
0.0
41
0.0
42
0.0
10
104.578528905758
20
157.995152839535
40
0.0
41
0.0
42
0.0
10
104.578528905758
20
158.445152839535
40
0.0
41
0.0
42
0.0
10
105.478528905758
20
158.445152839535
40
0.0
41
0.0
42
0.0
10
105.478528905758
20
158.213277546773
40
0.0
41
0.0
42
0.0
10
105.658528905758
20
158.213277546773
40
0.0
41
0.0
42
0.0
10
105.658528905758
20
157.895152839535
40
0.0
41
0.0
42
0.0
10
106.718528905758
20
157.895152839535
40
0.0
41
0.0
42
0.0
10
106.718528905758
20
158.144933516997
40
0.0
41
0.0
42
0.0
10
107.018528905758
20
158.144933516997
40
0.0
41
0.0
42
0.0
10
107.018528905758
20
158.445152839535
40
0.0
41
0.0
42
0.0
10
107.822425446458
20
158.445152839535
40
0.0
41
0.0
42
0.0
10
108.323764878088
20
158.445152839535
40
0.0
41
0.0
42
0.0
10
109.073764878088
20
158.445152839535
40
0.0
41
0.0
42
0.0
210
0.0
220
0.0
230
1.0
0
TEXT
5
183ED
330
1835A
100
AcDbEntity
67
0
8
aperture
62
256
6
ByLayer
370
-1
48
1.0
60
0
100
AcDbText
1
mq=28.51
10
105.556141311614
20
160.606551608243
30
0.0
40
0.2
41
1.0
50
0.0
51
0.0
7
Standard
11
0.0
21
0.0
31
0.0
210
0.0
220
0.0
230
1.0
72
0
100
AcDbText
73
0
0
TEXT
5
183EE
330
1835A
100
AcDbEntity
67
0
8
aperture
62
256
6
ByLayer
370
-1
48
1.0
60
0
100
AcDbText
1
mq=25.06
10
121.754395397822
20
161.992523270514
30
0.0
40
0.2
41
1.0
50
0.0
51
0.0
7
Standard
11
0.0
21
0.0
31
0.0
210
0.0
220
0.0
230
1.0
72
0
100
AcDbText
73
0
0
TEXT
5
183EF
330
1835A
100
AcDbEntity
67
0
8
aperture
62
256
6
ByLayer
370
-1
48
1.0
60
0
100
AcDbText
1
mq=8.30
10
120.023964496621
20
165.326964058175
30
0.0
40
0.2
41
1.0
50
0.0
51
0.0
7
Standard
11
0.0
21
0.0
31
0.0
210
0.0
220
0.0
230
1.0
72
0
100
AcDbText
73
0
0
TEXT
5
183F0
330
1835A
100
AcDbEntity
67
0
8
aperture
62
256
6
ByLayer
370
-1
48
1.0
60
0
100
AcDbText
1
mq=28.51
10
112.63224230581
20
162.681741822827
30
0.0
40
0.2
41
1.0
50
0.0
51
0.0
7
Standard
11
0.0
21
0.0
31
0.0
210
0.0
220
0.0
230
1.0
72
0
100
AcDbText
73
0
0
TEXT
5
183F1
330
1835A
100
AcDbEntity
67
0
8
aperture
62
256
6
ByLayer
370
-1
48
1.0
60
0
100
AcDbText
1
mq=25.06
10
112.625500267051
20
162.330345024192
30
0.0
40
0.2
41
1.0
50
0.0
51
0.0
7
Standard
11
0.0
21
0.0
31
0.0
210
0.0
220
0.0
230
1.0
72
0
100
AcDbText
73
0
0
TEXT
5
183F2
330
1835A
100
AcDbEntity
67
0
8
aperture
62
256
6
ByLayer
370
-1
48
1.0
60
0
100
AcDbText
1
mq=8.30
10
112.706358360873
20
161.997007678686
30
0.0
40
0.2
41
1.0
50
0.0
51
0.0
7
Standard
11
0.0
21
0.0
31
0.0
210
0.0
220
0.0
230
1.0
72
0
100
AcDbText
73
0
0
LINE
5
183F3
330
1835A
100
AcDbEntity
67
0
8
propspetti
62
256
6
ByLayer
370
-1
48
1.0
60
0
100
AcDbLine
10
111.87714692227
20
161.816652526292
30
0.0
11
114.847660076694
21
161.889042675389
31
0.0
39
0.0
210
0.0
220
0.0
230
1.0
0
TEXT
5
183F4
330
1835A
100
AcDbEntity
67
0
8
aperture
62
256
6
ByLayer
370
-1
48
1.0
60
0
100
AcDbText
1
mq=61.87
10
112.55979085002
20
161.499366051147
30
0.0
40
0.2
41
1.0
50
0.0
51
0.0
7
Standard
11
0.0
21
0.0
31
0.0
210
0.0
220
0.0
230
1.0
72
0
100
AcDbText
73
0
0
ENDSEC
0
SECTION
2
OBJECTS
0
DICTIONARY
5
619
330
18335
100
AcDbDictionary
280
0
281
1
3
ACAD_GROUP
350
61A
3
ACAD_LAYOUT
350
61B
3
ACAD_MLINESTYLE
350
61F
0
DICTIONARY
5
61A
330
619
100
AcDbDictionary
280
0
281
1
0
DICTIONARY
5
61B
330
619
100
AcDbDictionary
280
0
281
1
3
Layout1
350
18366
3
Layout2
350
18367
3
Model
350
18368
0
DICTIONARY
5
61F
330
619
100
AcDbDictionary
280
0
281
1
3
STANDARD
350
18369
0
LAYOUT
5
18366
330
61B
100
AcDbPlotSettings
1

2
None
4

6

40
0.0
41
0.0
42
0.0
43
0.0
44
0.0
45
0.0
46
0.0
47
0.0
48
0.0
49
0.0
140
0.0
141
0.0
142
1.0
143
1.0
70
688
72
0
73
0
74
5
7

75
16
147
1.0
148
0.0
149
0.0
100
AcDbLayout
1
Layout1
70
1
71
1
10
0.0
20
-7.5
11
12.0
21
9.0
12
0.0
22
0.0
32
0.0
14
0.0
24
0.0
34
0.0
15
0.0
25
0.0
35
0.0
146
0.0
13
0.0
23
0.0
33
0.0
16
1.0
26
0.0
36
0.0
17
0.0
27
1.0
37
0.0
76
0
330
1835C
0
LAYOUT
5
18367
330
61B
100
AcDbPlotSettings
1

2
None
4

6

40
0.0
41
0.0
42
0.0
43
0.0
44
0.0
45
0.0
46
0.0
47
0.0
48
0.0
49
0.0
140
0.0
141
0.0
142
1.0
143
1.0
70
688
72
0
73
0
74
5
7

75
16
147
1.0
148
0.0
149
0.0
100
AcDbLayout
1
Layout2
70
1
71
2
10
0.0
20
-7.5
11
12.0
21
9.0
12
0.0
22
0.0
32
0.0
14
0.0
24
0.0
34
0.0
15
0.0
25
0.0
35
0.0
146
0.0
13
0.0
23
0.0
33
0.0
16
1.0
26
0.0
36
0.0
17
0.0
27
1.0
37
0.0
76
0
330
1835E
0
LAYOUT
5
18368
330
61B
100
AcDbPlotSettings
1

2
none_device
4
ANSI_A_(8.50_x_11.00_Inches)
6

40
6.34999990463257
41
19.0499992370606
42
6.35000610351563
43
19.0499877929688
44
215.899993896484
45
279.399993896484
46
0.0
47
0.0
48
0.0
49
0.0
140
0.0
141
0.0
142
1.0
143
78.436453180766
70
11952
72
0
73
1
74
5
7

75
16
147
0.0127491741333
148
0.0
149
0.0
100
AcDbLayout
1
Model
70
1
71
3
10
0.0
20
-7.5
11
12.0
21
9.0
12
0.0
22
0.0
32
0.0
14
0.0
24
0.0
34
0.0
15
0.0
25
0.0
35
0.0
146
0.0
13
0.0
23
0.0
33
0.0
16
1.0
26
0.0
36
0.0
17
0.0
27
1.0
37
0.0
76
0
330
1835A
0
MLINESTYLE
5
18369
330
61F
100
AcDbMlineStyle
2
STANDARD
70
0
3

62
256
51
90.0
52
90.0
71
2
49
-0.5
62
256
6
ByLayer
49
0.5
62
256
6
ByLayer
0
ENDSEC
0
EOF
